<svg width="20" height="20" viewBox="0 0 20 20" fill="none" xmlns="http://www.w3.org/2000/svg">
<path d="M15.0002 6.66634H14.1668V4.99967C14.1668 2.69967 12.3002 0.833008 10.0002 0.833008C7.70016 0.833008 5.8335 2.69967 5.8335 4.99967V6.66634H5.00016C4.0835 6.66634 3.3335 7.41634 3.3335 8.33301V16.6663C3.3335 17.583 4.0835 18.333 5.00016 18.333H15.0002C15.9168 18.333 16.6668 17.583 16.6668 16.6663V8.33301C16.6668 7.41634 15.9168 6.66634 15.0002 6.66634ZM10.0002 14.1663C9.0835 14.1663 8.3335 13.4163 8.3335 12.4997C8.3335 11.583 9.0835 10.833 10.0002 10.833C10.9168 10.833 11.6668 11.583 11.6668 12.4997C11.6668 13.4163 10.9168 14.1663 10.0002 14.1663ZM12.5835 6.66634H7.41683V4.99967C7.41683 3.57467 8.57516 2.41634 10.0002 2.41634C11.4252 2.41634 12.5835 3.57467 12.5835 4.99967V6.66634Z" fill="#A5B0C1"/>
</svg>
